<svg xmlns="http://www.w3.org/2000/svg" width="128" height="128" viewBox="0 0 128 128">
  <title>BLOOD</title>
  <g>
    <path d="M85.232,82.549a21.54,21.54,0,0,1-43.08,0c0-11.9,21.54-34.882,21.54-34.882S85.232,70.653,85.232,82.549Z" fill="#e60c3b"/>
    <path d="M52.009,44.81a7.478,7.478,0,1,1-14.956,0c0-4.13,7.478-12.11,7.478-12.11S52.009,40.68,52.009,44.81Z" fill="#f8495d"/>
    <path d="M74.067,32.312a5.188,5.188,0,1,1-10.375,0c0-2.865,5.188-8.4,5.188-8.4S74.067,29.447,74.067,32.312Z" fill="#e60c3b"/>
    <path d="M90.947,61.245a9.069,9.069,0,1,1-18.138,0c0-5.009,9.069-14.687,9.069-14.687S90.947,56.236,90.947,61.245Z" fill="#f8495d"/>
    <polygon points="71.609 78.25 67.442 78.25 67.442 74.083 59.942 74.083 59.942 78.25 55.775 78.25 55.775 85.75 59.942 85.75 59.942 89.917 67.442 89.917 67.442 85.75 71.609 85.75 71.609 78.25" fill="#95edf7"/>
  </g>
</svg>
