<svg xmlns="http://www.w3.org/2000/svg" width="128" height="128" viewBox="0 0 128 128">
  <title>MEDICAL MASK</title>
  <g>
    <path d="M88.139,45.443a5.549,5.549,0,0,1-4.052-1.53c-1.608-1.609-1.959-4.147-.986-7.147a20.243,20.243,0,0,1,5.006-7.734,20.228,20.228,0,0,1,7.734-5.006c3-.974,5.538-.622,7.146.987,3.1,3.095,1.367,9.493-4.019,14.88C95.382,43.479,91.348,45.443,88.139,45.443ZM98.95,26.99a6.746,6.746,0,0,0-2.031.365,16.956,16.956,0,0,0-6.337,4.152c-4.258,4.258-5.226,8.726-4.02,9.931,1.233,1.232,5.608.3,9.931-4.02,4.258-4.258,5.225-8.726,4.02-9.931A2.172,2.172,0,0,0,98.95,26.99Z" fill="#dee1f3"/>
    <path d="M29.036,104.514a5.5,5.5,0,0,1-4.023-1.527c-3.1-3.095-1.367-9.493,4.019-14.88s11.785-7.114,14.881-4.02h0c1.608,1.609,1.959,4.147.986,7.147a20.243,20.243,0,0,1-5.006,7.734,20.228,20.228,0,0,1-7.734,5.006A10.178,10.178,0,0,1,29.036,104.514ZM39.854,86.061c-1.965,0-5.17,1.345-8.347,4.521-4.258,4.258-5.225,8.726-4.02,9.931.615.613,1.955.663,3.594.132a16.956,16.956,0,0,0,6.337-4.152c4.258-4.258,5.226-8.726,4.02-9.931A2.206,2.206,0,0,0,39.854,86.061Z" fill="#dee1f3"/>
    <path d="M80.572,30.452l19.821,19.821-7.2,20.8c-5.851,16.261-5.851,16.261-22.112,22.112l-20.8,7.2L30.452,80.572,43.991,58.416A43.72,43.72,0,0,1,58.416,43.991Z" fill="#95edf7"/>
    <path d="M95.054,44.928l-10.5,17.734a62.315,62.315,0,0,1-21.9,21.9l-17.734,10.5-9.982-9.982L50.619,65.265A58.742,58.742,0,0,1,65.265,50.619L85.072,34.946Z" fill="#52e1f3"/>
  </g>
</svg>
