<svg xmlns="http://www.w3.org/2000/svg" width="128" height="128" viewBox="0 0 128 128">
  <title>MEDICINE</title>
  <g>
    <path d="M23.911,55.942a16.3,16.3,0,0,0,16.3,16.3H71.753a16.3,16.3,0,0,0,0-32.6H40.211A16.3,16.3,0,0,0,23.911,55.942Z" fill="#ffee85"/>
    <path d="M71.753,39.642H55.982v32.6H71.753a16.3,16.3,0,0,0,0-32.6Z" fill="#fbde50"/>
    <path d="M39.947,72.058a16.3,16.3,0,0,0,16.3,16.3H87.789a16.3,16.3,0,0,0,0-32.6H56.247A16.3,16.3,0,0,0,39.947,72.058Z" fill="#f8495d"/>
    <path d="M87.789,55.758H72.018v32.6H87.789a16.3,16.3,0,0,0,0-32.6Z" fill="#e60c3b"/>
  </g>
</svg>
