<svg xmlns="http://www.w3.org/2000/svg" width="128" height="128" viewBox="0 0 128 128">
  <title>STETHOSCOPE</title>
  <g>
    <path d="M86.753,75.231H82.787a12.414,12.414,0,0,0-12.4,12.4V98.3a3.95,3.95,0,0,1-7.9,0V79.772A52.187,52.187,0,0,1,74.21,61.233c9.9-8.269,13.224-23.764,13.362-24.421a1.75,1.75,0,0,0-3.426-.716c-.032.15-3.243,15.056-12.254,22.516l-.022.02A17.159,17.159,0,0,1,60.731,62.77a17.537,17.537,0,0,1-12.272-5.145l-.142-.142C40.274,49.742,37.362,36.23,37.333,36.1a1.75,1.75,0,0,0-3.425.716c.124.6,3.15,14.693,11.958,23.169l.132.133c6.255,6.536,12.983,15.392,12.983,19.4,0,.031.007.06.008.091V98.3a7.45,7.45,0,0,0,14.9,0V87.631a8.91,8.91,0,0,1,8.9-8.9h3.966a1.75,1.75,0,0,0,0-3.5ZM55.359,65.56a20.741,20.741,0,0,0,10.656.025A57.313,57.313,0,0,0,60.99,74.22,49.917,49.917,0,0,0,55.359,65.56Z" fill="#dee1f3"/>
    <circle cx="34.015" cy="30.227" r="6.227" fill="#95edf7"/>
    <circle cx="86.753" cy="30.227" r="6.227" fill="#95edf7"/>
    <circle cx="93.985" cy="76.982" r="6.227" fill="#4c506d"/>
  </g>
</svg>
