<svg xmlns="http://www.w3.org/2000/svg" width="350" height="350" viewBox="0 0 610 610">
    <defs>
        <symbol id="blood-icon" xmlns="http://www.w3.org/2000/svg" width="128" height="128" viewBox="0 0 128 128">
            <title>BLOOD</title>
            <g>
                <path d="M85.232,82.549a21.54,21.54,0,0,1-43.08,0c0-11.9,21.54-34.882,21.54-34.882S85.232,70.653,85.232,82.549Z" fill="#e60c3b"/>
                <path d="M52.009,44.81a7.478,7.478,0,1,1-14.956,0c0-4.13,7.478-12.11,7.478-12.11S52.009,40.68,52.009,44.81Z" fill="#f8495d"/>
                <path d="M74.067,32.312a5.188,5.188,0,1,1-10.375,0c0-2.865,5.188-8.4,5.188-8.4S74.067,29.447,74.067,32.312Z" fill="#e60c3b"/>
                <path d="M90.947,61.245a9.069,9.069,0,1,1-18.138,0c0-5.009,9.069-14.687,9.069-14.687S90.947,56.236,90.947,61.245Z" fill="#f8495d"/>
                <polygon points="71.609 78.25 67.442 78.25 67.442 74.083 59.942 74.083 59.942 78.25 55.775 78.25 55.775 85.75 59.942 85.75 59.942 89.917 67.442 89.917 67.442 85.75 71.609 85.75 71.609 78.25" fill="#95edf7"/>
            </g>
        </symbol>
        <symbol id="medical-mask-icon" xmlns="http://www.w3.org/2000/svg" width="128" height="128" viewBox="0 0 128 128">
            <title>MEDICAL MASK</title>
            <g>
                <path d="M88.139,45.443a5.549,5.549,0,0,1-4.052-1.53c-1.608-1.609-1.959-4.147-.986-7.147a20.243,20.243,0,0,1,5.006-7.734,20.228,20.228,0,0,1,7.734-5.006c3-.974,5.538-.622,7.146.987,3.1,3.095,1.367,9.493-4.019,14.88C95.382,43.479,91.348,45.443,88.139,45.443ZM98.95,26.99a6.746,6.746,0,0,0-2.031.365,16.956,16.956,0,0,0-6.337,4.152c-4.258,4.258-5.226,8.726-4.02,9.931,1.233,1.232,5.608.3,9.931-4.02,4.258-4.258,5.225-8.726,4.02-9.931A2.172,2.172,0,0,0,98.95,26.99Z" fill="#dee1f3"/>
                <path d="M29.036,104.514a5.5,5.5,0,0,1-4.023-1.527c-3.1-3.095-1.367-9.493,4.019-14.88s11.785-7.114,14.881-4.02h0c1.608,1.609,1.959,4.147.986,7.147a20.243,20.243,0,0,1-5.006,7.734,20.228,20.228,0,0,1-7.734,5.006A10.178,10.178,0,0,1,29.036,104.514ZM39.854,86.061c-1.965,0-5.17,1.345-8.347,4.521-4.258,4.258-5.225,8.726-4.02,9.931.615.613,1.955.663,3.594.132a16.956,16.956,0,0,0,6.337-4.152c4.258-4.258,5.226-8.726,4.02-9.931A2.206,2.206,0,0,0,39.854,86.061Z" fill="#dee1f3"/>
                <path d="M80.572,30.452l19.821,19.821-7.2,20.8c-5.851,16.261-5.851,16.261-22.112,22.112l-20.8,7.2L30.452,80.572,43.991,58.416A43.72,43.72,0,0,1,58.416,43.991Z" fill="#95edf7"/>
                <path d="M95.054,44.928l-10.5,17.734a62.315,62.315,0,0,1-21.9,21.9l-17.734,10.5-9.982-9.982L50.619,65.265A58.742,58.742,0,0,1,65.265,50.619L85.072,34.946Z" fill="#52e1f3"/>
            </g>
        </symbol>
        <symbol id="medicine-icon" xmlns="http://www.w3.org/2000/svg" width="128" height="128" viewBox="0 0 128 128">
            <title>MEDICINE</title>
            <g>
                <path d="M23.911,55.942a16.3,16.3,0,0,0,16.3,16.3H71.753a16.3,16.3,0,0,0,0-32.6H40.211A16.3,16.3,0,0,0,23.911,55.942Z" fill="#ffee85"/>
                <path d="M71.753,39.642H55.982v32.6H71.753a16.3,16.3,0,0,0,0-32.6Z" fill="#fbde50"/>
                <path d="M39.947,72.058a16.3,16.3,0,0,0,16.3,16.3H87.789a16.3,16.3,0,0,0,0-32.6H56.247A16.3,16.3,0,0,0,39.947,72.058Z" fill="#f8495d"/>
                <path d="M87.789,55.758H72.018v32.6H87.789a16.3,16.3,0,0,0,0-32.6Z" fill="#e60c3b"/>
            </g>
        </symbol>
        <symbol id="stethoscope-icon" xmlns="http://www.w3.org/2000/svg" width="128" height="128" viewBox="0 0 128 128">
            <title>STETHOSCOPE</title>
            <g>
                <path d="M86.753,75.231H82.787a12.414,12.414,0,0,0-12.4,12.4V98.3a3.95,3.95,0,0,1-7.9,0V79.772A52.187,52.187,0,0,1,74.21,61.233c9.9-8.269,13.224-23.764,13.362-24.421a1.75,1.75,0,0,0-3.426-.716c-.032.15-3.243,15.056-12.254,22.516l-.022.02A17.159,17.159,0,0,1,60.731,62.77a17.537,17.537,0,0,1-12.272-5.145l-.142-.142C40.274,49.742,37.362,36.23,37.333,36.1a1.75,1.75,0,0,0-3.425.716c.124.6,3.15,14.693,11.958,23.169l.132.133c6.255,6.536,12.983,15.392,12.983,19.4,0,.031.007.06.008.091V98.3a7.45,7.45,0,0,0,14.9,0V87.631a8.91,8.91,0,0,1,8.9-8.9h3.966a1.75,1.75,0,0,0,0-3.5ZM55.359,65.56a20.741,20.741,0,0,0,10.656.025A57.313,57.313,0,0,0,60.99,74.22,49.917,49.917,0,0,0,55.359,65.56Z" fill="#dee1f3"/>
                <circle cx="34.015" cy="30.227" r="6.227" fill="#95edf7"/>
                <circle cx="86.753" cy="30.227" r="6.227" fill="#95edf7"/>
                <circle cx="93.985" cy="76.982" r="6.227" fill="#4c506d"/>
            </g>
        </symbol>
    </defs>

    <!-- Use the symbols -->
    <!-- <use href="#stethoscope-icon" x="50" y="50" width="200" height="300" opacity="0.2"/>
    <use href="#blood-icon" x="250" y="100" width="100" height="100" opacity="0.1"/>
    <use href="#medicine-icon" x="50" y="400" width="100" height="100" opacity="0.1"/>
    <use href="#medical-mask-icon" x="250" y="350" width="150" height="150" opacity="0.2"/> -->
    <!-- Top-left: stethoscope, tilted slightly -->
    <use href="#stethoscope-icon"
        x="80" y="40"
        width="180" height="270"
        opacity="0.2"
        transform="rotate(-10 170 175)" />

    <!-- Top-right: blood droplet, smaller but higher contrast -->
    <use href="#blood-icon"
        x="480" y="60"
        width="110" height="110"
        opacity="0.15"
        transform="rotate(8 535 115)" />

    <!-- Center: medical mask, slightly rotated and faded -->
    <use href="#medical-mask-icon"
        x="250" y="220"
        width="160" height="160"
        opacity="0.12"
        transform="rotate(-5 330 300)" />

    <!-- Bottom-left: medicine (pill), rotated opposite -->
    <use href="#medicine-icon"
        x="90" y="420"
        width="120" height="120"
        opacity="0.15"
        transform="rotate(12 150 480)" />

    <!-- Bottom-right: repeat one subtle symbol to balance -->
    <use href="#stethoscope-icon"
        x="470" y="400"
        width="160" height="240"
        opacity="0.1"
        transform="rotate(15 550 520)" />

</svg>



